<?xml version="1.0" encoding="UTF-8" standalone="no"?>
<!-- Created with Inkscape (http://www.inkscape.org/) -->

<svg
   width="80mm"
   height="80mm"
   viewBox="0 0 80.000008 79.999998"
   version="1.1"
   id="svg835"
   sodipodi:docname="mdev.svg"
   inkscape:export-filename="C:\Users\Louis\Desktop\vault\assets\mdev.png"
   inkscape:export-xdpi="127"
   inkscape:export-ydpi="127"
   inkscape:version="1.1 (c68e22c387, 2021-05-23)"
   xmlns:inkscape="http://www.inkscape.org/namespaces/inkscape"
   xmlns:sodipodi="http://sodipodi.sourceforge.net/DTD/sodipodi-0.dtd"
   xmlns="http://www.w3.org/2000/svg"
   xmlns:svg="http://www.w3.org/2000/svg">
  <sodipodi:namedview
     id="namedview837"
     pagecolor="#64bce3"
     bordercolor="#666666"
     borderopacity="1.0"
     inkscape:pageshadow="2"
     inkscape:pageopacity="0"
     inkscape:pagecheckerboard="0"
     inkscape:document-units="mm"
     showgrid="false"
     fit-margin-left="10"
     fit-margin-right="10"
     fit-margin-top="0"
     fit-margin-bottom="0"
     inkscape:zoom="1.0859962"
     inkscape:cx="216.8516"
     inkscape:cy="92.541764"
     inkscape:window-width="2400"
     inkscape:window-height="1271"
     inkscape:window-x="-9"
     inkscape:window-y="-9"
     inkscape:window-maximized="1"
     inkscape:current-layer="text12716" />
  <defs
     id="defs832" />
  <g
     inkscape:label="Layer 1"
     inkscape:groupmode="layer"
     id="layer1"
     transform="translate(-54.819151,-114.16407)">
    <rect
       style="fill:#000000;stroke-width:0.162716;stroke-linejoin:round;fill-opacity:1"
       id="rect22048"
       width="80"
       height="80"
       x="54.819153"
       y="114.16407" />
    <g
       aria-label="mdev"
       id="text2834"
       style="font-size:25.4px;line-height:1.25;font-family:'Montserrat Alternates';-inkscape-font-specification:'Montserrat Alternates';fill:#ffffff;stroke-width:0.264583"
       transform="matrix(1.4449895,0,0,1.4449895,-42.296641,-25.739649)">
      <g
         aria-label="m.dev
"
         id="text12716"
         style="font-weight:bold;font-size:16.2443px;font-family:'Baloo Tammudu 2';-inkscape-font-specification:'Baloo Tammudu 2 Bold';text-align:center;text-anchor:middle;stroke-width:0.0447705">
        <path
           d="m 84.396032,124.40678 q 0,-0.79597 -0.45484,-1.16959 -0.454841,-0.37362 -1.218323,-0.37362 -1.05588,0 -1.884339,0.74724 0.09747,0.32489 0.09747,0.69851 v 5.16568 q -0.08122,0.0325 -0.259909,0.065 -0.162443,0.0487 -0.34113,0.0487 -0.698505,0 -0.698505,-0.58479 v -4.59714 q 0,-0.79597 -0.454841,-1.16959 -0.45484,-0.37362 -1.234567,-0.37362 -0.519817,0 -0.990902,0.16245 -0.45484,0.16244 -0.779726,0.37361 v 6.07537 q -0.08122,0.0325 -0.243665,0.065 -0.162443,0.0487 -0.357374,0.0487 -0.698505,0 -0.698505,-0.58479 v -5.53931 q 0,-0.32488 0.129954,-0.53606 0.146199,-0.22742 0.487329,-0.45484 0.438596,-0.27615 1.104613,-0.47108 0.68226,-0.21118 1.364521,-0.21118 0.795971,0 1.413254,0.24366 0.617283,0.22742 0.942169,0.63353 0.422352,-0.37362 1.05588,-0.61728 0.633528,-0.25991 1.445743,-0.25991 1.315788,0 2.095515,0.63353 0.779726,0.61728 0.779726,1.91682 v 5.1332 q -0.08122,0.0325 -0.259909,0.065 -0.162443,0.0487 -0.34113,0.0487 -0.698505,0 -0.698505,-0.58479 v -4.59714 z"
           style="font-weight:normal;-inkscape-font-specification:'Baloo Tammudu 2, '"
           id="path12836" />
        <path
           d="m 88.272431,125.89555 q 0,-0.38986 0.22742,-0.64977 0.243665,-0.25991 0.666017,-0.25991 0.422351,0 0.649772,0.25991 0.22742,0.25991 0.22742,0.64977 0,0.37362 -0.22742,0.63353 -0.227421,0.25991 -0.649772,0.25991 -0.422352,0 -0.666017,-0.25991 -0.22742,-0.25991 -0.22742,-0.63353 z"
           style="font-weight:normal;-inkscape-font-specification:'Baloo Tammudu 2, '"
           id="path12838" />
        <path
           d="m 99.240157,128.27293 q 0,0.32488 -0.146199,0.50357 -0.129954,0.17869 -0.422352,0.35737 -0.324886,0.21118 -0.925925,0.38987 -0.601039,0.19493 -1.380765,0.19493 -0.877193,0 -1.608186,-0.22742 -0.730994,-0.22742 -1.267056,-0.69851 -0.519817,-0.48733 -0.812215,-1.21832 -0.276153,-0.74724 -0.276153,-1.78687 0,-1.05588 0.292398,-1.80312 0.292397,-0.76348 0.779726,-1.25081 0.503573,-0.48733 1.16959,-0.71475 0.68226,-0.22742 1.445742,-0.22742 0.519818,0 1.007147,0.12995 0.487329,0.12996 0.844704,0.32489 v -3.2651 q 0.08122,-0.0325 0.243664,-0.065 0.178688,-0.0487 0.357375,-0.0487 0.698505,0 0.698505,0.58479 z m -1.299544,-4.85705 q -0.324886,-0.22742 -0.747238,-0.38986 -0.422352,-0.16245 -0.974658,-0.16245 -0.503573,0 -0.958414,0.16245 -0.438596,0.14619 -0.779726,0.50357 -0.341131,0.34113 -0.552307,0.90968 -0.194931,0.56855 -0.194931,1.38077 0,1.49447 0.714749,2.16049 0.714749,0.66601 1.900583,0.66601 0.568551,0 0.925925,-0.11371 0.373619,-0.12995 0.666017,-0.30864 z"
           style="font-weight:normal;-inkscape-font-specification:'Baloo Tammudu 2, '"
           id="path12840" />
        <path
           d="m 102.6352,126.51854 q 0.4386,2.128 2.79402,2.128 0.68226,0 1.23457,-0.22742 0.55231,-0.22742 0.87719,-0.48733 0.38987,0.22743 0.38987,0.61729 0,0.22742 -0.21118,0.43859 -0.19493,0.21118 -0.55231,0.37362 -0.34113,0.16245 -0.81221,0.25991 -0.45484,0.0975 -0.9909,0.0975 -1.88434,0 -2.98895,-1.02339 -1.08837,-1.02339 -1.08837,-2.98895 0,-0.92593 0.25991,-1.64068 0.27615,-0.73099 0.74723,-1.23457 0.48733,-0.50357 1.15335,-0.76348 0.66602,-0.27615 1.44574,-0.27615 0.731,0 1.34828,0.24366 0.61728,0.24367 1.05588,0.69851 0.45484,0.43859 0.6985,1.05588 0.25991,0.60104 0.25991,1.33203 0,0.35738 -0.16244,0.51982 -0.16244,0.1462 -0.45484,0.17869 z m 2.24172,-3.67121 q -0.9909,0 -1.64068,0.6985 -0.64977,0.68226 -0.68226,1.96556 l 4.46719,-0.61728 q -0.0812,-0.89344 -0.63353,-1.46199 -0.53606,-0.58479 -1.51072,-0.58479 z"
           style="font-weight:normal;-inkscape-font-specification:'Baloo Tammudu 2, '"
           id="path12842" />
        <path
           d="m 115.69558,121.85643 q 0.27615,0 0.4386,0.1462 0.17869,0.14619 0.17869,0.42235 0,0.17868 -0.12996,0.63352 -0.12995,0.4386 -0.34113,1.05588 -0.21118,0.60104 -0.48733,1.33204 -0.25991,0.73099 -0.56855,1.46198 -0.2924,0.71475 -0.60104,1.38077 -0.2924,0.66602 -0.5523,1.15334 -0.0812,0.065 -0.2924,0.11371 -0.19493,0.0487 -0.42235,0.0487 -0.60104,0 -0.77973,-0.34113 -0.1462,-0.27616 -0.37362,-0.76348 -0.22742,-0.48733 -0.48733,-1.10462 -0.25991,-0.61728 -0.53606,-1.31579 -0.27615,-0.6985 -0.53606,-1.38076 -0.25991,-0.69851 -0.48733,-1.33203 -0.22742,-0.64978 -0.37362,-1.15335 0.11371,-0.16244 0.30864,-0.25991 0.19493,-0.0975 0.38986,-0.0975 0.2924,0 0.4386,0.1462 0.16244,0.14619 0.2924,0.48732 l 1.00715,2.90773 q 0.0975,0.27616 0.24366,0.68226 0.1462,0.38987 0.2924,0.81222 0.16244,0.40611 0.30864,0.79597 0.16244,0.38986 0.25991,0.66602 h 0.065 q 0.64978,-1.64068 1.20208,-3.23262 0.56855,-1.59194 0.99091,-3.13515 0.21117,-0.12995 0.5523,-0.12995 z"
           style="font-weight:normal;-inkscape-font-specification:'Baloo Tammudu 2, '"
           id="path12844" />
      </g>
    </g>
  </g>
</svg>
